<mxfile host="app.diagrams.net" agent="Mozilla/5.0 (Windows NT 10.0; Win64; x64) AppleWebKit/537.36 (KHTML, like Gecko) Chrome/132.0.0.0 Safari/537.36" version="26.0.10">
  <diagram name="1 oldal" id="gGtrtCA8DzeAvd5ddbEP">
    <mxGraphModel dx="875" dy="464" grid="1" gridSize="10" guides="1" tooltips="1" connect="1" arrows="1" fold="1" page="1" pageScale="1" pageWidth="827" pageHeight="1169" math="0" shadow="0">
      <root>
        <mxCell id="0" />
        <mxCell id="1" parent="0" />
        <mxCell id="-zs0mvOOTRPeC6Jk1F0Y-9" style="edgeStyle=orthogonalEdgeStyle;rounded=0;orthogonalLoop=1;jettySize=auto;html=1;fillColor=#a0522d;strokeColor=#6D1F00;strokeWidth=2;endSize=12;startSize=12;endArrow=open;endFill=0;startArrow=open;startFill=0;" edge="1" parent="1" source="-zs0mvOOTRPeC6Jk1F0Y-1" target="-zs0mvOOTRPeC6Jk1F0Y-5">
          <mxGeometry relative="1" as="geometry" />
        </mxCell>
        <mxCell id="-zs0mvOOTRPeC6Jk1F0Y-1" value="Memento" style="swimlane;fontStyle=1;align=center;verticalAlign=top;childLayout=stackLayout;horizontal=1;startSize=26;horizontalStack=0;resizeParent=1;resizeParentMax=0;resizeLast=0;collapsible=1;marginBottom=0;whiteSpace=wrap;html=1;fillColor=#a0522d;fontColor=#ffffff;strokeColor=#6D1F00;" vertex="1" parent="1">
          <mxGeometry x="310" y="90" width="160" height="100" as="geometry" />
        </mxCell>
        <mxCell id="-zs0mvOOTRPeC6Jk1F0Y-2" value="- state: string" style="text;strokeColor=none;fillColor=none;align=left;verticalAlign=top;spacingLeft=4;spacingRight=4;overflow=hidden;rotatable=0;points=[[0,0.5],[1,0.5]];portConstraint=eastwest;whiteSpace=wrap;html=1;" vertex="1" parent="-zs0mvOOTRPeC6Jk1F0Y-1">
          <mxGeometry y="26" width="160" height="26" as="geometry" />
        </mxCell>
        <mxCell id="-zs0mvOOTRPeC6Jk1F0Y-3" value="" style="line;strokeWidth=1;fillColor=none;align=left;verticalAlign=middle;spacingTop=-1;spacingLeft=3;spacingRight=3;rotatable=0;labelPosition=right;points=[];portConstraint=eastwest;strokeColor=inherit;" vertex="1" parent="-zs0mvOOTRPeC6Jk1F0Y-1">
          <mxGeometry y="52" width="160" height="8" as="geometry" />
        </mxCell>
        <mxCell id="-zs0mvOOTRPeC6Jk1F0Y-4" value="+ Memento(string)&lt;div&gt;+ GetState(): string&lt;/div&gt;" style="text;strokeColor=none;fillColor=none;align=left;verticalAlign=top;spacingLeft=4;spacingRight=4;overflow=hidden;rotatable=0;points=[[0,0.5],[1,0.5]];portConstraint=eastwest;whiteSpace=wrap;html=1;" vertex="1" parent="-zs0mvOOTRPeC6Jk1F0Y-1">
          <mxGeometry y="60" width="160" height="40" as="geometry" />
        </mxCell>
        <mxCell id="-zs0mvOOTRPeC6Jk1F0Y-5" value="TextEditor" style="swimlane;fontStyle=1;align=center;verticalAlign=top;childLayout=stackLayout;horizontal=1;startSize=26;horizontalStack=0;resizeParent=1;resizeParentMax=0;resizeLast=0;collapsible=1;marginBottom=0;whiteSpace=wrap;html=1;fillColor=#a0522d;fontColor=#ffffff;strokeColor=#6D1F00;" vertex="1" parent="1">
          <mxGeometry x="30" y="80" width="160" height="120" as="geometry" />
        </mxCell>
        <mxCell id="-zs0mvOOTRPeC6Jk1F0Y-6" value="- content: string" style="text;strokeColor=none;fillColor=none;align=left;verticalAlign=top;spacingLeft=4;spacingRight=4;overflow=hidden;rotatable=0;points=[[0,0.5],[1,0.5]];portConstraint=eastwest;whiteSpace=wrap;html=1;" vertex="1" parent="-zs0mvOOTRPeC6Jk1F0Y-5">
          <mxGeometry y="26" width="160" height="26" as="geometry" />
        </mxCell>
        <mxCell id="-zs0mvOOTRPeC6Jk1F0Y-7" value="" style="line;strokeWidth=1;fillColor=none;align=left;verticalAlign=middle;spacingTop=-1;spacingLeft=3;spacingRight=3;rotatable=0;labelPosition=right;points=[];portConstraint=eastwest;strokeColor=inherit;" vertex="1" parent="-zs0mvOOTRPeC6Jk1F0Y-5">
          <mxGeometry y="52" width="160" height="8" as="geometry" />
        </mxCell>
        <mxCell id="-zs0mvOOTRPeC6Jk1F0Y-8" value="+ Write(string): void&lt;div&gt;+ Save(): Memento&lt;/div&gt;&lt;div&gt;+ Restore(Memento): void&lt;/div&gt;" style="text;strokeColor=none;fillColor=none;align=left;verticalAlign=top;spacingLeft=4;spacingRight=4;overflow=hidden;rotatable=0;points=[[0,0.5],[1,0.5]];portConstraint=eastwest;whiteSpace=wrap;html=1;" vertex="1" parent="-zs0mvOOTRPeC6Jk1F0Y-5">
          <mxGeometry y="60" width="160" height="60" as="geometry" />
        </mxCell>
        <mxCell id="-zs0mvOOTRPeC6Jk1F0Y-10" style="edgeStyle=orthogonalEdgeStyle;rounded=0;orthogonalLoop=1;jettySize=auto;html=1;fillColor=#a0522d;strokeColor=#6D1F00;strokeWidth=2;endSize=12;startSize=12;endArrow=open;endFill=0;startArrow=none;startFill=0;" edge="1" parent="1" source="-zs0mvOOTRPeC6Jk1F0Y-11" target="-zs0mvOOTRPeC6Jk1F0Y-1">
          <mxGeometry relative="1" as="geometry">
            <mxPoint x="560" y="230" as="sourcePoint" />
            <mxPoint x="440" y="230" as="targetPoint" />
          </mxGeometry>
        </mxCell>
        <mxCell id="-zs0mvOOTRPeC6Jk1F0Y-11" value="CareTaker" style="swimlane;fontStyle=1;align=center;verticalAlign=top;childLayout=stackLayout;horizontal=1;startSize=26;horizontalStack=0;resizeParent=1;resizeParentMax=0;resizeLast=0;collapsible=1;marginBottom=0;whiteSpace=wrap;html=1;fillColor=#a0522d;fontColor=#ffffff;strokeColor=#6D1F00;" vertex="1" parent="1">
          <mxGeometry x="590" y="70" width="160" height="140" as="geometry" />
        </mxCell>
        <mxCell id="-zs0mvOOTRPeC6Jk1F0Y-12" value="- editor: Editor&lt;div&gt;- histroy: Memnto[]&lt;/div&gt;" style="text;strokeColor=none;fillColor=none;align=left;verticalAlign=top;spacingLeft=4;spacingRight=4;overflow=hidden;rotatable=0;points=[[0,0.5],[1,0.5]];portConstraint=eastwest;whiteSpace=wrap;html=1;" vertex="1" parent="-zs0mvOOTRPeC6Jk1F0Y-11">
          <mxGeometry y="26" width="160" height="44" as="geometry" />
        </mxCell>
        <mxCell id="-zs0mvOOTRPeC6Jk1F0Y-13" value="" style="line;strokeWidth=1;fillColor=none;align=left;verticalAlign=middle;spacingTop=-1;spacingLeft=3;spacingRight=3;rotatable=0;labelPosition=right;points=[];portConstraint=eastwest;strokeColor=inherit;" vertex="1" parent="-zs0mvOOTRPeC6Jk1F0Y-11">
          <mxGeometry y="70" width="160" height="8" as="geometry" />
        </mxCell>
        <mxCell id="-zs0mvOOTRPeC6Jk1F0Y-14" value="+ CareTaker(Editor)&lt;div&gt;+ Backup(): void&lt;/div&gt;&lt;div&gt;+ Undo(): void&lt;/div&gt;" style="text;strokeColor=none;fillColor=none;align=left;verticalAlign=top;spacingLeft=4;spacingRight=4;overflow=hidden;rotatable=0;points=[[0,0.5],[1,0.5]];portConstraint=eastwest;whiteSpace=wrap;html=1;" vertex="1" parent="-zs0mvOOTRPeC6Jk1F0Y-11">
          <mxGeometry y="78" width="160" height="62" as="geometry" />
        </mxCell>
        <mxCell id="-zs0mvOOTRPeC6Jk1F0Y-15" style="edgeStyle=orthogonalEdgeStyle;rounded=0;orthogonalLoop=1;jettySize=auto;html=1;fillColor=#a0522d;strokeColor=#6D1F00;strokeWidth=2;endSize=12;startSize=12;endArrow=open;endFill=0;startArrow=none;startFill=0;" edge="1" parent="1" source="-zs0mvOOTRPeC6Jk1F0Y-11" target="-zs0mvOOTRPeC6Jk1F0Y-5">
          <mxGeometry relative="1" as="geometry">
            <mxPoint x="600" y="150" as="sourcePoint" />
            <mxPoint x="480" y="150" as="targetPoint" />
            <Array as="points">
              <mxPoint x="560" y="140" />
              <mxPoint x="560" y="240" />
              <mxPoint x="230" y="240" />
              <mxPoint x="230" y="140" />
            </Array>
          </mxGeometry>
        </mxCell>
      </root>
    </mxGraphModel>
  </diagram>
</mxfile>
